<svg id="circuit-kvgkgow4" height="256" width="564.0166625976562" viewBox="0 0 564.0166625976562 256" xmlns="http://www.w3.org/2000/svg" xmlns:svg="http://www.w3.org/2000/svg" style="background-color: #ffffff;"><defs><filter id="dropshadow" height="140%" width="140%"><feGaussianBlur in="SourceAlpha" stdDeviation="1"/> <feOffset dx="1" dy="2" result="offsetblur"/> <feMerge><feMergeNode/> <feMergeNode in="SourceGraphic"/></feMerge></filter> <linearGradient id="fixed-right-shadow"><stop offset="5%" stop-color="#ffffff" stop-opacity="0"/> <stop offset="95%" stop-color="#ffffff"/></linearGradient> <clipPath id="gates-area-kvgkgow4"><rect x="50" y="0" width="514.0166625976562" height="256"/></clipPath></defs>  <g style=""><g><g transform="translate(50, 40)"><line x1="0" x2="504.01666259765625" y1="0" y2="0" fill="none" style="stroke: #e0e0e0; stroke-width: 1px; stroke-linecap: round;"/></g><g transform="translate(50, 80)"><line x1="0" x2="504.01666259765625" y1="0" y2="0" fill="none" style="stroke: #e0e0e0; stroke-width: 1px; stroke-linecap: round;"/></g><g transform="translate(50, 120)"><line x1="0" x2="504.01666259765625" y1="0" y2="0" fill="none" style="stroke: #e0e0e0; stroke-width: 1px; stroke-linecap: round;"/></g></g> <g transform="translate(50, 176)"><line x1="0" x2="504.01666259765625" y1="-4" y2="-4" fill="none" style="stroke: #e0e0e0; stroke-width: 1px; stroke-linecap: round;"/> <line x1="0" x2="504.01666259765625" y1="0" y2="0" fill="none" style="stroke: #e0e0e0; stroke-width: 1px; stroke-linecap: round;"/></g><g transform="translate(50, 216)"><line x1="0" x2="504.01666259765625" y1="-4" y2="-4" fill="none" style="stroke: #e0e0e0; stroke-width: 1px; stroke-linecap: round;"/> <line x1="0" x2="504.01666259765625" y1="0" y2="0" fill="none" style="stroke: #e0e0e0; stroke-width: 1px; stroke-linecap: round;"/></g>  <g selection="" style="font-family: &quot;IBM Plex Sans&quot;, sans-serif;"><g data-index="0" class="svg-gate gate">   <g transform="translate(68,64)"><rect width="32" height="32" style="fill: #fa4d56;"/>  <text dominant-baseline="alphabetical" x="16" y="22" style="font-size: 18px; font-style: normal; fill: #000000; font-weight: normal;"><tspan text-anchor="middle">H</tspan></text>  </g> </g><g data-index="1" class="svg-gate gate">  <g class="control"><g class="control-line"><line x1="134" y1="80" x2="134" y2="120" style="stroke-width: 3px; stroke: #002d9c;"/></g> <g class="control-dots"><g data-control-param="c" class="control-dot"><circle r="10" cx="134" cy="80" fill="transparent" stroke-width="1" stroke="transparent"/> <circle r="6" cx="134" cy="80" fill="#ffffff"/> <circle r="6" cx="134" cy="80" style="fill: #002d9c; opacity: 1;"/></g></g></g> <g transform="translate(118,104)"> <circle cx="16" cy="16" r="16" style="fill: #002d9c;"/>   <path slot="label" transform="translate(16, 16) scale(0.8)" d="M1.1-1.2v-9.4h-2.2v9.4h-8.8v2.4h8.8v9.4h2.2V1.2h8.8v-2.4H1.1z" fill="#ffffff"/></g> </g><g data-index="2" class="svg-gate gate">  <g class="control"><g class="control-line"><line x1="184" y1="40" x2="184" y2="80" style="stroke-width: 3px; stroke: #002d9c;"/></g> <g class="control-dots"><g data-control-param="c" class="control-dot"><circle r="10" cx="184" cy="40" fill="transparent" stroke-width="1" stroke="transparent"/> <circle r="6" cx="184" cy="40" fill="#ffffff"/> <circle r="6" cx="184" cy="40" style="fill: #002d9c; opacity: 1;"/></g></g></g> <g transform="translate(168,64)"> <circle cx="16" cy="16" r="16" style="fill: #002d9c;"/>   <path slot="label" transform="translate(16, 16) scale(0.8)" d="M1.1-1.2v-9.4h-2.2v9.4h-8.8v2.4h8.8v9.4h2.2V1.2h8.8v-2.4H1.1z" fill="#ffffff"/></g> </g><g data-index="3" class="svg-gate gate">   <g transform="translate(218,24)"><rect width="32" height="32" style="fill: #fa4d56;"/>  <text dominant-baseline="alphabetical" x="16" y="22" style="font-size: 18px; font-style: normal; fill: #000000; font-weight: normal;"><tspan text-anchor="middle">H</tspan></text>  </g> </g><g data-index="4" class="svg-gate gate"><g center="[object Object]"><line x1="284" y1="40" x2="284" y2="176" stroke="#979797" style="stroke-width: 1.5px;"/> <path d="M0,0 L8,0 L4,8 z" fill="#979797" transform="translate(280 168)"/> <text x="284" y="190" dominant-baseline="alphabetical" style="fill: #161616;"><tspan text-anchor="middle">0</tspan></text></g> <g center="[object Object]">   <g transform="translate(268,24)"><rect width="32" height="32" style="fill: #a8a8a8;"/>    <g transform="scale(0.9) translate(4,5)"><path d="M28.5 0.43042H22.5V2.43042H25.88L22.5 6.43042V8.43042H28.5V6.43042H25.12L28.5 2.43042V0.43042V0.43042Z" fill="#000000"/> <path d="M18.5 14.0504L20.58 10.4304L18.85 9.43042L16.67 13.2004C12.9909 11.8369 8.87757 12.3582 5.65489 14.5964C2.4322 16.8345 0.507243 20.5068 0.5 24.4304H2.5C2.50244 21.2177 4.04826 18.2019 6.655 16.324C9.26174 14.4462 12.6119 13.9352 15.66 14.9504L12.5 20.4304C11.5946 20.4295 10.8015 21.0369 10.5665 21.9113C10.3315 22.7856 10.7132 23.7088 11.4971 24.1619C12.2809 24.615 13.2714 24.485 13.9118 23.845C14.5522 23.2049 14.6827 22.2145 14.23 21.4304L17.5 15.7804C20.5908 17.5649 22.4963 20.8614 22.5 24.4304H24.5C24.4956 20.1476 22.209 16.1918 18.5 14.0504Z" fill="#000000"/></g></g> </g></g><g data-index="5" class="svg-gate gate"><g center="[object Object]"><line x1="334" y1="80" x2="334" y2="216" stroke="#979797" style="stroke-width: 1.5px;"/> <path d="M0,0 L8,0 L4,8 z" fill="#979797" transform="translate(330 208)"/> <text x="334" y="230" dominant-baseline="alphabetical" style="fill: #161616;"><tspan text-anchor="middle">0</tspan></text></g> <g center="[object Object]">   <g transform="translate(318,64)"><rect width="32" height="32" style="fill: #a8a8a8;"/>    <g transform="scale(0.9) translate(4,5)"><path d="M28.5 0.43042H22.5V2.43042H25.88L22.5 6.43042V8.43042H28.5V6.43042H25.12L28.5 2.43042V0.43042V0.43042Z" fill="#000000"/> <path d="M18.5 14.0504L20.58 10.4304L18.85 9.43042L16.67 13.2004C12.9909 11.8369 8.87757 12.3582 5.65489 14.5964C2.4322 16.8345 0.507243 20.5068 0.5 24.4304H2.5C2.50244 21.2177 4.04826 18.2019 6.655 16.324C9.26174 14.4462 12.6119 13.9352 15.66 14.9504L12.5 20.4304C11.5946 20.4295 10.8015 21.0369 10.5665 21.9113C10.3315 22.7856 10.7132 23.7088 11.4971 24.1619C12.2809 24.615 13.2714 24.485 13.9118 23.845C14.5522 23.2049 14.6827 22.2145 14.23 21.4304L17.5 15.7804C20.5908 17.5649 22.4963 20.8614 22.5 24.4304H24.5C24.4956 20.1476 22.209 16.1918 18.5 14.0504Z" fill="#000000"/></g></g> </g></g><g data-index="6" class="svg-gate gate"> <g><line x1="384" y1="120" x2="384" y2="216" style="stroke-width: 1.5px; stroke: #8d8d8d;"/> <text x="384" y="230" dominant-baseline="alphabetical" style="fill: #161616;"><tspan text-anchor="middle">== 1</tspan></text></g>  <g transform="translate(368,104)"> <circle cx="16" cy="16" r="16" style="fill: #002d9c;"/>   <path slot="label" transform="translate(16, 16) scale(0.8)" d="M1.1-1.2v-9.4h-2.2v9.4h-8.8v2.4h8.8v9.4h2.2V1.2h8.8v-2.4H1.1z" fill="#ffffff"/></g> </g><g data-index="7" class="svg-gate gate"> <g><line x1="434" y1="120" x2="434" y2="176" style="stroke-width: 1.5px; stroke: #8d8d8d;"/> <text x="434" y="190" dominant-baseline="alphabetical" style="fill: #161616;"><tspan text-anchor="middle">== 1</tspan></text></g>  <g transform="translate(418,104)"><rect width="32" height="32" style="fill: #33b1ff;"/>  <text dominant-baseline="alphabetical" x="16" y="22" style="font-size: 18px; font-style: normal; fill: #000000; font-weight: normal;"><tspan text-anchor="middle">Z</tspan></text>  </g> </g></g> </g> <svg x="0" y="0" width="50" height="100%" class="fixedLabels"><g><svg x="24" y="28" width="25px" height="1em" class="registerLabel" style="overflow: visible;"><text font-family="'IBM Plex Mono'" font-weight="400" x="0" y="1em" style="fill: #6f6f6f;"><tspan font-size="14px">q</tspan> <tspan dy="2" dx="1" font-size="10px">0</tspan></text> </svg><svg x="24" y="68" width="25px" height="1em" class="registerLabel" style="overflow: visible;"><text font-family="'IBM Plex Mono'" font-weight="400" x="0" y="1em" style="fill: #6f6f6f;"><tspan font-size="14px">q</tspan> <tspan dy="2" dx="1" font-size="10px">1</tspan></text> </svg><svg x="24" y="108" width="25px" height="1em" class="registerLabel" style="overflow: visible;"><text font-family="'IBM Plex Mono'" font-weight="400" x="0" y="1em" style="fill: #6f6f6f;"><tspan font-size="14px">q</tspan> <tspan dy="2" dx="1" font-size="10px">2</tspan></text> </svg> </g> <svg x="24" y="164" width="100%"><text width="100%" font-family="'IBM Plex Mono'" font-size="14px" font-weight="400" x="0" y="1em" style="fill: #6f6f6f;">
            c1
          </text></svg><svg x="24" y="204" width="100%"><text width="100%" font-family="'IBM Plex Mono'" font-size="14px" font-weight="400" x="0" y="1em" style="fill: #6f6f6f;">
            d1
          </text></svg></svg>  <g/></svg>